<svg xmlns="http://www.w3.org/2000/svg" width="228" height="73" fill="none" viewBox="0 0 228 73"><path fill="#fff" d="M20.7704 40.4312V35.8441C15.1972 36.0365 10.7381 40.6322 10.7381 46.2731V47.0035H0.974609V46.2731C0.974609 35.2195 9.80443 26.2358 20.7704 26.0409V21.0793L37.5037 30.9378L20.7704 40.4312Z"/><path fill="#fff" d="M29.1256 46.2731V47.0035C29.1256 52.6446 24.667 57.2398 19.094 57.4326V52.8459L2.36084 62.339L19.094 72.1978V67.236C30.0596 67.0408 38.8895 58.0574 38.8895 47.0035V46.2731H29.1256Z"/><path fill="#fff" d="M82.59 66L79.774 55.248H67.55L64.798 66H55.07L67.166 21.328H80.734L92.83 66H82.59ZM73.95 30.608H73.438L69.086 47.504H78.302L73.95 30.608ZM97.861 58.64H105.477V40.336H97.861V32.976H114.949V42.32H115.397C115.696 41.1253 116.101 39.9733 116.613 38.864C117.168 37.712 117.85 36.7093 118.661 35.856C119.514 34.96 120.538 34.256 121.733 33.744C122.928 33.232 124.336 32.976 125.957 32.976H129.093V41.68H122.053C119.706 41.68 117.936 42.384 116.741 43.792C115.546 45.1573 114.949 46.8427 114.949 48.848V58.64H125.829V66H97.861V58.64ZM151.596 66.768C146.049 66.768 141.847 65.232 138.988 62.16C136.129 59.088 134.7 54.9067 134.7 49.616C134.7 46.928 135.063 44.5173 135.788 42.384C136.556 40.208 137.623 38.3733 138.988 36.88C140.396 35.344 142.081 34.192 144.044 33.424C146.049 32.6133 148.289 32.208 150.764 32.208C153.239 32.208 155.457 32.6133 157.42 33.424C159.383 34.192 161.047 35.3013 162.412 36.752C163.777 38.2027 164.823 39.9733 165.548 42.064C166.316 44.112 166.7 46.416 166.7 48.976V51.792H144.108V52.368C144.108 54.5013 144.769 56.2293 146.092 57.552C147.415 58.832 149.356 59.472 151.916 59.472C153.879 59.472 155.564 59.1093 156.972 58.384C158.38 57.616 159.596 56.6133 160.62 55.376L165.74 60.944C164.46 62.5227 162.668 63.888 160.364 65.04C158.06 66.192 155.137 66.768 151.596 66.768ZM150.828 38.992C148.78 38.992 147.137 39.632 145.9 40.912C144.705 42.1493 144.108 43.8347 144.108 45.968V46.48H157.42V45.968C157.42 43.792 156.823 42.0853 155.628 40.848C154.476 39.6107 152.876 38.992 150.828 38.992ZM201.043 66C199.08 66 197.502 65.5093 196.307 64.528C195.112 63.504 194.408 62.0533 194.195 60.176H193.875C193.278 62.352 192.083 63.9947 190.291 65.104C188.542 66.2133 186.387 66.768 183.827 66.768C180.627 66.768 178.046 65.9147 176.083 64.208C174.163 62.4587 173.203 60.0267 173.203 56.912C173.203 53.456 174.462 50.896 176.979 49.232C179.496 47.568 183.187 46.736 188.051 46.736H193.363V45.072C193.363 43.1093 192.894 41.6373 191.955 40.656C191.059 39.632 189.523 39.12 187.347 39.12C185.342 39.12 183.72 39.504 182.483 40.272C181.246 41.04 180.179 42.0427 179.283 43.28L174.099 38.672C175.208 36.7947 176.936 35.2587 179.283 34.064C181.672 32.8267 184.723 32.208 188.435 32.208C192.958 32.208 196.478 33.2533 198.995 35.344C201.555 37.392 202.835 40.5067 202.835 44.688V59.152H206.483V66H201.043ZM187.411 60.56C189.075 60.56 190.483 60.1547 191.635 59.344C192.787 58.5333 193.363 57.36 193.363 55.824V51.856H188.307C184.424 51.856 182.483 53.1573 182.483 55.76V57.04C182.483 58.192 182.931 59.0667 183.827 59.664C184.723 60.2613 185.918 60.56 187.411 60.56Z"/></svg>